<svg aria-hidden="true" style="position: absolute; width: 0; height: 0; overflow: hidden;" version="1.1" xmlns="http://www.w3.org/2000/svg" xmlns:xlink="http://www.w3.org/1999/xlink">
<defs>
<symbol id="icon-logo" viewBox="0 0 33 32">
<path d="M24.611 0.001v10.622h7.923v21.378h-24.077v-10.622h-7.923v-21.378h24.077zM24.611 10.623h-16.155v10.756h16.155v-10.756z"></path>
</symbol>
<symbol id="icon-pinterest" viewBox="0 0 32 32">
<path d="M16.011 0c-3.731-0.002-7.345 1.299-10.218 3.679s-4.824 5.689-5.516 9.355c-0.692 3.666-0.080 7.459 1.728 10.722s4.7 5.792 8.175 7.149c-0.14-1.266-0.268-3.212 0.054-4.594 0.292-1.25 1.876-7.954 1.876-7.954s-0.478-0.958-0.478-2.374c0-2.226 1.29-3.886 2.896-3.886 1.364 0 2.024 1.024 2.024 2.254 0 1.372-0.874 3.424-1.326 5.326-0.376 1.592 0.8 2.892 2.37 2.892 2.844 0 5.030-3 5.030-7.328 0-3.83-2.754-6.508-6.684-6.508-4.552 0-7.224 3.414-7.224 6.942 0 1.376 0.53 2.85 1.19 3.652 0.057 0.060 0.097 0.135 0.117 0.215s0.018 0.165-0.005 0.245c-0.122 0.504-0.392 1.592-0.444 1.814-0.070 0.292-0.232 0.354-0.536 0.214-2-0.93-3.248-3.852-3.248-6.2 0-5.046 3.668-9.68 10.573-9.68 5.55 0 9.864 3.954 9.864 9.24 0 5.514-3.478 9.952-8.302 9.952-1.622 0-3.146-0.842-3.668-1.838l-0.996 3.804c-0.362 1.39-1.338 3.132-1.99 4.194 2.2 0.68 4.521 0.878 6.804 0.578s4.475-1.087 6.426-2.311 3.614-2.854 4.877-4.78c1.263-1.926 2.095-4.101 2.44-6.378s0.194-4.601-0.442-6.815c-0.636-2.213-1.742-4.263-3.243-6.010s-3.361-3.149-5.453-4.11c-2.092-0.962-4.368-1.46-6.67-1.462z"></path>
</symbol>
<symbol id="icon-youtube" viewBox="0 0 32 32">
<path d="M16 32c-8.837 0-16-7.163-16-16s7.163-16 16-16c8.837 0 16 7.163 16 16s-7.163 16-16 16zM16.867 9.464h-0.105v0.001h-0.228c-1.126 0.004-2.253 0.024-3.379 0.060l-0.202 0.008-0.305 0.011-0.201 0.008c-1.313 0.059-2.564 0.154-3.14 0.308-0.402 0.109-0.768 0.321-1.062 0.616s-0.505 0.662-0.612 1.064c-0.119 0.448-0.203 1.045-0.26 1.659l-0.012 0.123-0.026 0.308-0.009 0.123-0.004 0.062-0.008 0.122c-0.064 0.97-0.073 1.849-0.076 2.103v0.145c0.006 0.804 0.039 1.607 0.097 2.409l0.009 0.123 0.009 0.124c0.059 0.677 0.147 1.35 0.278 1.843 0.107 0.402 0.319 0.769 0.612 1.063s0.66 0.507 1.061 0.615c0.576 0.156 1.827 0.25 3.14 0.308l0.405 0.017 0.103 0.005 0.201 0.007c1.585 0.054 3.097 0.062 3.463 0.062h0.168c0.723-0.001 5.939-0.027 7.311-0.396 0.402-0.109 0.768-0.321 1.062-0.616s0.505-0.662 0.612-1.064c0.131-0.494 0.219-1.166 0.278-1.843l0.011-0.123 0.009-0.124c0.085-1.126 0.096-2.207 0.097-2.437v-0.089c-0.001-0.221-0.011-1.234-0.088-2.315l-0.009-0.123-0.026-0.308-0.012-0.123c-0.057-0.614-0.141-1.209-0.26-1.659-0.107-0.402-0.318-0.769-0.612-1.064s-0.66-0.507-1.062-0.616c-1.329-0.357-6.256-0.393-7.228-0.396zM14.808 18.961v-5.7l4.918 2.851-4.918 2.849z"></path>
</symbol>
<symbol id="icon-telegram" viewBox="0 0 32 32">
<path d="M32 16c0 4.243-1.686 8.313-4.686 11.314s-7.070 4.686-11.314 4.686c-4.243 0-8.313-1.686-11.314-4.686s-4.686-7.070-4.686-11.314c0-4.243 1.686-8.313 4.686-11.314s7.070-4.686 11.314-4.686c4.243 0 8.313 1.686 11.314 4.686s4.686 7.070 4.686 11.314zM16.574 11.812c-1.556 0.648-4.668 1.988-9.332 4.020-0.756 0.3-1.154 0.596-1.19 0.884-0.060 0.486 0.55 0.678 1.38 0.94l0.35 0.11c0.816 0.266 1.916 0.576 2.486 0.588 0.52 0.012 1.098-0.2 1.736-0.64 4.358-2.942 6.608-4.428 6.748-4.46 0.1-0.024 0.24-0.052 0.332 0.032 0.094 0.082 0.084 0.24 0.074 0.282-0.060 0.258-2.454 2.482-3.692 3.634-0.386 0.36-0.66 0.614-0.716 0.672-0.123 0.126-0.249 0.25-0.376 0.372-0.76 0.732-1.328 1.28 0.030 2.176 0.654 0.432 1.178 0.786 1.7 1.142 0.568 0.388 1.136 0.774 1.872 1.258 0.186 0.12 0.366 0.25 0.54 0.374 0.662 0.472 1.26 0.896 1.994 0.828 0.428-0.040 0.87-0.44 1.094-1.64 0.53-2.834 1.572-8.972 1.812-11.502 0.015-0.21 0.006-0.422-0.026-0.63-0.019-0.168-0.1-0.323-0.228-0.434-0.182-0.126-0.399-0.191-0.62-0.186-0.6 0.010-1.526 0.332-5.968 2.18z"></path>
</symbol>
<symbol id="icon-close" viewBox="0 0 32 32">
<path fill="none" stroke="#fff" style="stroke: var(--color1, #fff)" stroke-linejoin="miter" stroke-linecap="round" stroke-miterlimit="4" stroke-width="3.2" d="M1.6 1.6l28.8 28.8"></path>
<path fill="none" stroke="#fff" style="stroke: var(--color1, #fff)" stroke-linejoin="miter" stroke-linecap="round" stroke-miterlimit="4" stroke-width="3.2" d="M30.4 1.6l-28.8 28.8"></path>
</symbol>

<symbol id="icon-arrow-left" viewBox="0 0 20 20">
<path d="M13.891 17.418c0.268 0.272 0.268 0.709 0 0.979s-0.701 0.271-0.969 0l-7.83-7.908c-0.268-0.27-0.268-0.707 0-0.979l7.83-7.908c0.268-0.27 0.701-0.27 0.969 0s0.268 0.709 0 0.979l-7.141 7.419 7.141 7.418z"></path>
</symbol>
<symbol id="icon-arrow-right" viewBox="0 0 20 20">
<path d="M13.25 10l-7.141-7.42c-0.268-0.27-0.268-0.707 0-0.979 0.268-0.27 0.701-0.27 0.969 0l7.83 7.908c0.268 0.271 0.268 0.709 0 0.979l-7.83 7.908c-0.268 0.271-0.701 0.27-0.969 0s-0.268-0.707 0-0.979l7.141-7.417z"></path>
</symbol>

<symbol id="icon-star" viewBox="0 0 38 32">
<path fill="#545454" style="fill: var(--color1, #545454)" d="M18.909 0l4.104 11.806 12.496 0.255-9.96 7.551 3.619 11.964-10.259-7.139-10.26 7.139 3.619-11.964-9.96-7.551 12.496-0.255 4.104-11.806z"></path>
</symbol>



</defs>
</svg>
